<svg width="24" height="24" viewBox="0 0 24 24" fill="none" xmlns="http://www.w3.org/2000/svg">
<rect width="24" height="24" transform="matrix(-1 0 0 1 24 0)" fill="white"/>
<path d="M12 6.49999C14.4997 6.49999 15.5 5.49999 18.0002 5.99999C20.7699 6.55388 21.2324 10.009 21.0001 13C20.7364 16.3936 18.9689 20.2949 16.0089 20.7836C14.5068 21.0316 13.6674 20.0617 12.0002 20C10.333 20.0617 9.49314 21.0316 7.99106 20.7836C5.03105 20.2949 3.26352 16.3936 2.9999 13C2.76757 10.009 3.23004 6.55388 5.99974 5.99999C8.49998 5.49999 9.50023 6.49999 12 6.49999ZM12 6.49999C12 5.9747 11.8965 5.45457 11.6955 4.96927C11.4945 4.48396 11.1999 4.04301 10.8284 3.67157C10.457 3.30014 10.016 3.0055 9.53075 2.80448C9.04544 2.60346 8.5253 2.5 8.00001 2.5" stroke="black"/>
<path d="M13.5 2C12.9307 2.56928 13 4 13 4C13 4 14.4307 4.06928 15 3.5C15.5693 2.93072 15.5 1.5 15.5 1.5C15.5 1.5 14.0693 1.43072 13.5 2Z" fill="black"/>
</svg>
