<svg width="24" height="24" viewBox="0 0 24 24" fill="none" xmlns="http://www.w3.org/2000/svg">
<rect width="24" height="24" transform="matrix(-1 0 0 1 24 0)" fill="white"/>
<path d="M6 20C6 21.1046 5.10457 22 4 22C2.89543 22 2 21.1046 2 20C2 18.8954 2.89543 18 4 18M6 20C6 18.8954 5.10457 18 4 18M6 20H15M4 18V9M15 20C15 21.1046 15.8954 22 17 22C18.1046 22 19 21.1046 19 20C19 18.8954 18.1046 18 17 18M15 20C15 18.8954 15.8954 18 17 18M17 18L20 6M20 6C21.1046 6 22 5.10457 22 4C22 2.89543 21.1046 2 20 2C18.8954 2 18 2.89543 18 4M20 6C18.8954 6 18 5.10457 18 4M18 4L6 7M6 7C6 8.10457 5.10457 9 4 9M6 7C6 5.89543 5.10457 5 4 5C2.89543 5 2 5.89543 2 7C2 8.10457 2.89543 9 4 9" stroke="black"/>
</svg>
