<svg width="24" height="24" viewBox="0 0 24 24" fill="none" xmlns="http://www.w3.org/2000/svg">
<rect width="24" height="24" transform="matrix(-1 0 0 1 24 0)" fill="white"/>
<path d="M12 21V10M12 21C13.777 21 15.3736 20.2275 16.4722 19M12 21C10.223 21 8.62643 20.2275 7.52779 19M6 10H12M6 10V14M6 10L2 9M6 10C6 7.57851 7.43447 5.49205 9.5 4.54404M18 10H12M18 10V14M18 10L22 9M18 10C18 7.57851 16.5655 5.49205 14.5 4.54404M6 14V15C6 16.5367 6.57771 17.9385 7.52779 19M6 14L2 15M18 14V15C18 16.5367 17.4223 17.9385 16.4722 19M18 14L22 15M16.4722 19L19 22M7.52779 19L5 22M9.5 4.54404C10.2611 4.19474 11.1078 4 12 4C12.8922 4 13.7389 4.19474 14.5 4.54404M9.5 4.54404V1.5M14.5 1.5V4.54404" stroke="black"/>
</svg>
