<svg width="24" height="24" viewBox="0 0 24 24" fill="none" xmlns="http://www.w3.org/2000/svg">
<rect width="24" height="24" transform="matrix(-1 0 0 1 24 0)" fill="white"/>
<path d="M12 22C14.7614 22 17.2614 20.8807 19.0711 19.0711L14.8284 14.8284M12 22C9.23858 22 6.73859 20.8807 4.92894 19.0711M12 22L12 16M4.92894 19.0711L9.17158 14.8284M4.92894 19.0711C3.11929 17.2614 2 14.7614 2 12C2 9.23858 3.11929 6.73858 4.92893 4.92893L9.17157 9.17157M9.17158 14.8284C8.44772 14.1046 8 13.1046 8 12C8 10.8954 8.44772 9.89543 9.17157 9.17157M9.17158 14.8284C9.89544 15.5523 10.8954 16 12 16M9.17157 9.17157C9.89543 8.44772 10.8954 8 12 8M12 8V2C17.5228 2 22 6.47715 22 12L16 12M12 8C14.2091 8 16 9.79086 16 12M16 12C16 13.1046 15.5523 14.1046 14.8284 14.8284M14.8284 14.8284C14.1046 15.5523 13.1046 16 12 16" stroke="black"/>
</svg>
