<svg width="24" height="24" viewBox="0 0 24 24" fill="none" xmlns="http://www.w3.org/2000/svg">
<rect width="24" height="24" fill="white"/>
<path d="M14.5 2.31504V7H18L19.1414 5C17.8866 3.71995 16.2903 2.77584 14.5 2.31504Z" fill="black"/>
<path d="M22 12C22 11.3151 21.9311 10.6462 21.8 10H16L15 14L18 16L19.1414 19C20.9097 17.1962 22 14.7255 22 12Z" fill="black"/>
<path fill-rule="evenodd" clip-rule="evenodd" d="M5.99902 4L7 6H10L9 11H5L4.5 13L6 16H10L12 18L10 21.8C5.43552 20.8734 2 16.8379 2 12C2 8.7288 3.57069 5.82446 5.99902 4Z" fill="black"/>
<path d="M14.5 2.31504V7H18L19.1414 5M14.5 2.31504C16.2903 2.77584 17.8866 3.71995 19.1414 5M14.5 2.31504C13.701 2.10938 12.8632 2 12 2C9.74835 2 7.67051 2.74418 5.99902 4M19.1414 5C20.4653 6.35045 21.4092 8.07481 21.8 10M21.8 10C21.9311 10.6462 22 11.3151 22 12C22 14.7255 20.9097 17.1962 19.1414 19M21.8 10H16L15 14L18 16L19.1414 19M19.1414 19C17.3265 20.8514 14.7974 22 12 22C11.3151 22 10.6462 21.9311 10 21.8M5.99902 4L7 6H10M5.99902 4C3.57069 5.82446 2 8.7288 2 12C2 16.8379 5.43552 20.8734 10 21.8M10 6L9 11M10 6L11 4.5M9 11H5L4.5 13L6 16H10L12 18L10 21.8M9 11V13" stroke="black"/>
</svg>
