<svg width="24" height="24" viewBox="0 0 24 24" fill="none" xmlns="http://www.w3.org/2000/svg">
<rect width="24" height="24" fill="white"/>
<path d="M22 12C22 17.5228 17.5228 22 12 22C6.47715 22 2 17.5228 2 12C2 6.47715 6.47715 2 12 2C17.5228 2 22 6.47715 22 12Z" stroke="black"/>
<circle cx="8" cy="10" r="2" fill="black"/>
<circle cx="16" cy="10" r="2" fill="black"/>
<path d="M16.7632 14.75C16.2804 15.5861 15.5861 16.2804 14.75 16.7631C13.9139 17.2459 12.9655 17.5 12 17.5C11.0346 17.5 10.0861 17.2459 9.25002 16.7631C8.41391 16.2804 7.7196 15.5861 7.23688 14.75" stroke="black"/>
</svg>
