<svg width="24" height="24" viewBox="0 0 24 24" fill="none" xmlns="http://www.w3.org/2000/svg">
<rect width="24" height="24" fill="white"/>
<path d="M22 12C22 17.5228 17.5228 22 12 22C6.47715 22 2 17.5228 2 12C2 6.47715 6.47715 2 12 2C17.5228 2 22 6.47715 22 12Z" stroke="black"/>
<circle cx="8" cy="10" r="2" fill="black"/>
<circle cx="16" cy="10" r="2" fill="black"/>
<path d="M16.7632 17.5C16.2804 16.6639 15.5861 15.9696 14.75 15.4869C13.9139 15.0041 12.9655 14.75 12 14.75C11.0346 14.75 10.0861 15.0041 9.25002 15.4869C8.41391 15.9696 7.7196 16.6639 7.23688 17.5" stroke="black"/>
</svg>
