<svg width="24" height="24" viewBox="0 0 24 24" fill="none" xmlns="http://www.w3.org/2000/svg">
<g clip-path="url(#clip0_436_2)">
<rect width="24" height="24" transform="matrix(-1 0 0 1 24 0)" fill="white"/>
<path d="M2 11V4C2 3.44772 2.44772 3 3 3H21C21.5523 3 22 3.44772 22 4V11M2 11V15.1765V16M2 11H12M22 11V16M22 11H12M2 16V20C2 20.5523 2.44772 21 3 21H12M2 16H22M22 16V20C22 20.5523 21.5523 21 21 21H12M12 21V11" stroke="black"/>
</g>
<defs>
<clipPath id="clip0_436_2">
<rect width="24" height="24" fill="white" transform="matrix(-1 0 0 1 24 0)"/>
</clipPath>
</defs>
</svg>
