<svg width="24" height="24" viewBox="0 0 24 24" fill="none" xmlns="http://www.w3.org/2000/svg">
<rect width="24" height="24" fill="white"/>
<path d="M9 5L10.7333 6.3C10.9064 6.42982 11.117 6.5 11.3333 6.5H12.6667C12.883 6.5 13.0936 6.42982 13.2667 6.3L15 5H9Z" fill="black"/>
<path d="M1 19H23M9 5H4C3.44772 5 3 5.44772 3 6V16C3 16.5523 3.44772 17 4 17H20C20.5523 17 21 16.5523 21 16V6C21 5.44772 20.5523 5 20 5H15M9 5L10.7333 6.3C10.9064 6.42982 11.117 6.5 11.3333 6.5H12.6667C12.883 6.5 13.0936 6.42982 13.2667 6.3L15 5M9 5H15" stroke="black"/>
</svg>
