<svg width="24" height="24" viewBox="0 0 24 24" fill="none" xmlns="http://www.w3.org/2000/svg">
<rect width="24" height="24" transform="matrix(-1 0 0 1 24 0)" fill="white"/>
<path d="M12 8L15.4641 10M12 8L8.5359 10M12 8L5.60778 4.30945M15.4641 10V14M15.4641 10V2.61627M15.4641 14L12 16M15.4641 14L21.8576 10.3087M12 16L8.5359 14M12 16L18.3922 19.6906M8.5359 14V10M8.5359 14V21.3837M8.5359 10L2.14242 13.6913M2.14242 13.6913C2.04878 13.1415 2 12.5765 2 12C2 8.908 3.40331 6.14377 5.60778 4.30945M2.14242 13.6913C2.74816 17.2473 5.23129 20.1634 8.5359 21.3837M8.5359 21.3837C9.61523 21.7823 10.7822 22 12 22C14.4309 22 16.6591 21.1327 18.3922 19.6906M18.3922 19.6906C20.5967 17.8562 22 15.092 22 12C22 11.4235 21.9512 10.8585 21.8576 10.3087M21.8576 10.3087C21.2518 6.75275 18.7687 3.83663 15.4641 2.61627M15.4641 2.61627C14.3848 2.21769 13.2178 2 12 2C9.56915 2 7.34087 2.86735 5.60778 4.30945" stroke="black"/>
</svg>
