<svg width="24" height="24" viewBox="0 0 24 24" fill="none" xmlns="http://www.w3.org/2000/svg">
<rect width="24" height="24" transform="matrix(-1 0 0 1 24 0)" fill="white"/>
<path d="M17.1622 5.62763C18.7287 6.72449 19.9051 8.29181 20.5208 10.1023C21.1365 11.9128 21.1595 13.8723 20.5865 15.6968C20.0135 17.5212 18.8742 19.1157 17.3339 20.2491C15.7936 21.3824 13.9324 21.9957 12.0201 22C10.1078 22.0042 8.24381 21.3993 6.69848 20.2728C5.15316 19.1464 4.0068 17.5569 3.42566 15.7351C2.84451 13.9132 2.85878 11.9536 3.46639 10.1404C4.07401 8.32714 5.24339 6.75459 6.80495 5.65075M12.0201 1V11" stroke="black"/>
</svg>
