<svg width="24" height="24" viewBox="0 0 24 24" fill="none" xmlns="http://www.w3.org/2000/svg">
<rect width="24" height="24" fill="white"/>
<path d="M22 12C22 17.5228 17.5228 22 12 22C6.47715 22 2 17.5228 2 12C2 6.47715 6.47715 2 12 2C17.5228 2 22 6.47715 22 12Z" stroke="black"/>
<path d="M14.1213 14.1213L9.8787 9.87868L16.2427 7.75736L14.1213 14.1213Z" fill="black"/>
<path d="M9.87917 9.87852L16.2408 7.75799C16.2415 7.75773 16.2423 7.75847 16.242 7.75926L14.1215 14.1208C14.1214 14.1211 14.1212 14.1214 14.1209 14.1215L7.75927 16.242C7.75849 16.2423 7.75775 16.2415 7.75801 16.2407L9.87854 9.87915C9.87864 9.87885 9.87887 9.87862 9.87917 9.87852Z" stroke="black" stroke-miterlimit="16"/>
</svg>
