<svg width="24" height="24" viewBox="0 0 24 24" fill="none" xmlns="http://www.w3.org/2000/svg">
<rect width="24" height="24" fill="white"/>
<path d="M4 3V3.5H20V3V2.5H4V3ZM21 4H20.5V20H21H21.5V4H21ZM20 21V20.5H4V21V21.5H20V21ZM3 20H3.5V4H3H2.5V20H3ZM4 21V20.5C3.72386 20.5 3.5 20.2761 3.5 20H3H2.5C2.5 20.8284 3.17157 21.5 4 21.5V21ZM21 20H20.5C20.5 20.2761 20.2761 20.5 20 20.5V21V21.5C20.8284 21.5 21.5 20.8284 21.5 20H21ZM20 3V3.5C20.2761 3.5 20.5 3.72386 20.5 4H21H21.5C21.5 3.17157 20.8284 2.5 20 2.5V3ZM4 3V2.5C3.17157 2.5 2.5 3.17157 2.5 4H3H3.5C3.5 3.72386 3.72386 3.5 4 3.5V3Z" fill="black"/>
</svg>
