<svg width="24" height="24" viewBox="0 0 24 24" fill="none" xmlns="http://www.w3.org/2000/svg">
<rect width="24" height="24" fill="white"/>
<path d="M12 17C15.866 17 19 13.866 19 10C19 9.68323 18.9868 9.34702 18.9635 9L17.8349 9.28475C15.9837 9.75181 14.0375 9.67917 12.2263 9.07543L11.7737 8.92457C9.96248 8.32083 8.01628 8.24819 6.16509 8.71525L5.03646 9C5.01316 9.34702 5 9.68323 5 10C5 13.866 8.13401 17 12 17Z" fill="black"/>
<path d="M5 21H12M12 21H19M12 21V17M12 17C15.866 17 19 13.866 19 10C19 9.68323 18.9868 9.34702 18.9635 9M12 17C8.13401 17 5 13.866 5 10C5 9.68323 5.01316 9.34702 5.03646 9M5.03646 9C5.21627 6.32191 6 3 6 3H18C18 3 18.7837 6.32191 18.9635 9M5.03646 9L6.16509 8.71525C8.01628 8.24819 9.96248 8.32083 11.7737 8.92457L12.2263 9.07543C14.0375 9.67917 15.9837 9.75181 17.8349 9.28475L18.9635 9" stroke="black"/>
</svg>
