<svg width="24" height="24" viewBox="0 0 24 24" fill="none" xmlns="http://www.w3.org/2000/svg">
<path d="M22 12H2M22 12C22 9.20261 20.8514 6.67349 19 4.85857M22 12C22 14.7974 20.8514 17.3265 19 19.1414M12 22V2M12 22C14.7255 22 17.1962 20.9097 19 19.1414M12 22C9.27455 22 6.80375 20.9097 5 19.1414M2 12C2 9.20261 3.14864 6.67349 5 4.85857M2 12C2 14.7974 3.14864 17.3265 5 19.1414M12 2C14.7255 2 17.1962 3.09032 19 4.85857M12 2C9.27455 2 6.80375 3.09032 5 4.85857M19 4.85857C19 4.85857 16 8 16 12C16 16 19 19.1414 19 19.1414M5 4.85857C5 4.85857 8 8 8 12C8 16 5 19.1414 5 19.1414" stroke="black"/>
</svg>
