<svg width="24" height="24" viewBox="0 0 24 24" fill="none" xmlns="http://www.w3.org/2000/svg"><path d="M8 17C8 18.1046 7.10457 19 6 19C4.89543 19 4 18.1046 4 17M8 17C8 15.8954 7.10457 15 6 15C4.89543 15 4 15.8954 4 17M8 17H16M4 17H3C2.44772 17 2 16.5523 2 16V11.277C2 11.0957 2.04926 10.9179 2.14251 10.7625L4.7087 6.4855C4.88942 6.1843 5.21493 6 5.56619 6H14.382C14.7607 6 15.107 6.214 15.2764 6.55279L16.83 9.65994C16.9395 9.879 17.1256 10.0502 17.353 10.1412L21.3714 11.7486C21.751 11.9004 22 12.2681 22 12.677V16C22 16.5523 21.5523 17 21 17H20M20 17C20 18.1046 19.1046 19 18 19C16.8954 19 16 18.1046 16 17M20 17C20 15.8954 19.1046 15 18 15C16.8954 15 16 15.8954 16 17"/></svg>