<svg width="24" height="24" viewBox="0 0 24 24" fill="none" xmlns="http://www.w3.org/2000/svg">
<path d="M12 1.5C17.799 1.5 22.5 6.20101 22.5 12C22.5 17.799 17.799 22.5 12 22.5C6.20101 22.5 1.5 17.799 1.5 12C1.5 6.20101 6.20101 1.5 12 1.5ZM12 14C10.8954 14 10 14.8954 10 16C10 17.1046 10.8954 18 12 18C13.1046 18 14 17.1046 14 16C14 14.8954 13.1046 14 12 14ZM8 8.93945L6.53027 7.46973L5.46973 8.53027L6.93945 10L5.46973 11.4697L6.53027 12.5303L8 11.0605L9.46973 12.5303L10.5303 11.4697L9.06055 10L10.5303 8.53027L9.46973 7.46973L8 8.93945ZM16 8.93945L14.5303 7.46973L13.4697 8.53027L14.9395 10L13.4697 11.4697L14.5303 12.5303L16 11.0605L17.4697 12.5303L18.5303 11.4697L17.0605 10L18.5303 8.53027L17.4697 7.46973L16 8.93945Z" fill="black"/>
</svg>
