<svg width="24" height="24" viewBox="0 0 24 24" fill="none" xmlns="http://www.w3.org/2000/svg">
<g clip-path="url(#clip0_432_87)">
<path d="M13.1905 7.52936L12 7.5272L10.8095 7.52936C10.5756 6.76465 10.0827 6.09926 9.411 5.64121C8.73925 5.18316 7.92803 4.95934 7.109 5.00608C6.28998 5.05283 5.51125 5.3674 4.89922 5.89872C4.28719 6.43004 3.87779 7.14692 3.73747 7.933L2.071 15.141C1.8236 16.2234 2.26222 17.0663 2.77811 17.6867C3.294 18.307 4.01036 18.7396 4.81091 18.9142C5.61145 19.0888 6.44918 18.9952 7.1881 18.6485C7.92703 18.3018 8.52377 17.7224 8.88145 17.0044L9.40121 15.1088L14.5988 15.1088L15.1185 17.0044C15.4762 17.7224 16.073 18.3018 16.8119 18.6485C17.5508 18.9952 18.3885 19.0888 19.1891 18.9142C19.9896 18.7396 20.706 18.307 21.2219 17.6867C21.7378 17.0663 22.1764 16.2233 21.929 15.141L20.2625 7.933C20.1222 7.14692 19.7128 6.43004 19.1008 5.89871C18.4888 5.36739 17.71 5.05283 16.891 5.00608C16.072 4.95933 15.2607 5.18315 14.589 5.6412C13.9173 6.09925 13.4244 6.76464 13.1905 7.52936Z" stroke="black"/>
<circle cx="7" cy="10.5" r="1.5" fill="black"/>
<circle cx="15.2863" cy="10.5" r="0.75" fill="black"/>
<circle cx="16.7863" cy="9" r="0.75" fill="black"/>
<circle cx="18.2863" cy="10.5" r="0.75" fill="black"/>
<circle cx="16.7863" cy="12" r="0.75" fill="black"/>
</g>
<defs>
<clipPath id="clip0_432_87">
<rect width="24" height="24" fill="white" transform="matrix(-1 0 0 1 24 0)"/>
</clipPath>
</defs>
</svg>
