<svg width="24" height="24" viewBox="0 0 24 24" fill="none" xmlns="http://www.w3.org/2000/svg">
<path d="M5 11.742V20.742C5 21.2943 5.44772 21.742 6 21.742H12M5 11.742H12H19M5 11.742H4C3.44772 11.742 3 11.2943 3 10.742V7.74201C3 7.18973 3.44606 6.74201 3.99834 6.74201C5.41316 6.74201 7.94649 6.74201 9 6.74201M19 11.742V20.742C19 21.2943 18.5523 21.742 18 21.742H12M19 11.742H20C20.5523 11.742 21 11.2943 21 10.742V7.74201C21 7.18973 20.5539 6.74201 20.0017 6.74201C18.5868 6.74201 16.0535 6.74201 15 6.74201M12 6.74201V21.742M12 6.74201C12 6.74201 12 4.91358 12 3.74201M12 6.74201C12 6.74201 13.8284 6.74201 15 6.74201M12 6.74201C12 6.74201 10.1716 6.74201 9 6.74201M12 3.74201C12 2.24201 14.5 1.24201 16 2.74201C17.5 4.24201 16.5 6.74201 15 6.74201M12 3.74201C12 2.24201 9.5 1.24201 8 2.74201C6.5 4.24201 7.5 6.74201 9 6.74201" stroke="black"/>
</svg>
