<svg width="24" height="24" viewBox="0 0 24 24" fill="none" xmlns="http://www.w3.org/2000/svg">
<path d="M3 6V6.5H21V6V5.5H3V6ZM22 7H21.5V17H22H22.5V7H22ZM21 18V17.5H3V18V18.5H21V18ZM2 17H2.5V7H2H1.5V17H2ZM3 18V17.5C2.72386 17.5 2.5 17.2761 2.5 17H2H1.5C1.5 17.8284 2.17157 18.5 3 18.5V18ZM22 17H21.5C21.5 17.2761 21.2761 17.5 21 17.5V18V18.5C21.8284 18.5 22.5 17.8284 22.5 17H22ZM21 6V6.5C21.2761 6.5 21.5 6.72386 21.5 7H22H22.5C22.5 6.17157 21.8284 5.5 21 5.5V6ZM3 6V5.5C2.17157 5.5 1.5 6.17157 1.5 7H2H2.5C2.5 6.72386 2.72386 6.5 3 6.5V6Z" fill="black"/>
<rect x="4" y="8" width="1.5" height="1.5" fill="black"/>
<rect x="4" y="11.25" width="1.5" height="1.5" fill="black"/>
<rect x="4" y="14.5" width="1.5" height="1.5" fill="black"/>
<rect x="7" y="8" width="1.5" height="1.5" fill="black"/>
<rect x="10" y="8" width="1.5" height="1.5" fill="black"/>
<rect x="13" y="8" width="1.5" height="1.5" fill="black"/>
<rect x="7" y="11.25" width="1.5" height="1.5" fill="black"/>
<rect x="10" y="11.25" width="1.5" height="1.5" fill="black"/>
<rect x="13" y="11.25" width="1.5" height="1.5" fill="black"/>
<rect x="16" y="11.25" width="4" height="1.5" fill="black"/>
<rect x="17" y="14.5" width="3" height="1.5" fill="black"/>
<rect x="16" y="8" width="4" height="1.5" fill="black"/>
<rect x="7" y="14.5" width="8.5" height="1.5" fill="black"/>
</svg>
