<svg width="24" height="24" viewBox="0 0 24 24" fill="none" xmlns="http://www.w3.org/2000/svg"><path d="M20.8213 5.15931L13.599 10.7985M23 14.5052L13.9418 12.4809M16.8955 22L12.8643 13.8041M7.10454 22L11.1357 13.8041M3.17868 5.15931L10.401 10.7985M1 14.5052L10.0582 12.4809M12 10V1M12 10C11.3464 10 10.7659 10.3136 10.401 10.7985M12 10C12.6536 10 13.2341 10.3136 13.599 10.7985M10.401 10.7985C10.1492 11.133 10 11.5491 10 12C10 12.1658 10.0202 12.3269 10.0582 12.4809M13.599 10.7985C13.8508 11.133 14 11.5491 14 12C14 12.1658 13.9798 12.3269 13.9418 12.4809M13.9418 12.4809C13.7975 13.0656 13.396 13.5489 12.8643 13.8041M12.8643 13.8041C12.6027 13.9297 12.3095 14 12 14C11.6905 14 11.3973 13.9297 11.1357 13.8041M11.1357 13.8041C10.604 13.5489 10.2025 13.0656 10.0582 12.4809M20 12C20 16.4183 16.4183 20 12 20C7.58172 20 4 16.4183 4 12C4 7.58172 7.58172 4 12 4C16.4183 4 20 7.58172 20 12Z"/></svg>