<svg width="24" height="24" viewBox="0 0 24 24" fill="none" xmlns="http://www.w3.org/2000/svg">
<path d="M9 6.99998L8.5 6.99998V6.99998H9ZM2 12L1.5 12V12H2ZM20.5411 16.8781L20.4639 16.3841L20.5411 16.8781ZM20.6443 17.0262L20.2123 16.7744L20.6443 17.0262ZM10.1511 2.34073L10.5933 2.57409L10.1511 2.34073ZM10.0444 2.19494L10.1416 2.68539L10.0444 2.19494ZM10.1511 2.34073L9.70893 2.10736C8.93769 3.5688 8.5 5.2337 8.5 6.99998L9 6.99998L9.5 6.99998C9.5 5.40076 9.89593 3.89561 10.5933 2.57409L10.1511 2.34073ZM9 6.99998H8.5C8.5 12.799 13.201 17.5 19 17.5V17V16.5C13.7533 16.5 9.5 12.2467 9.5 6.99998H9ZM19 17V17.5C19.5519 17.5 20.0922 17.4544 20.6183 17.3722L20.5411 16.8781L20.4639 16.3841C19.9852 16.4589 19.4967 16.5 19 16.5V17ZM20.6443 17.0262L20.2123 16.7744C18.5652 19.6012 15.5048 21.5 12 21.5V22V22.5C15.8755 22.5 19.2577 20.3991 21.0763 17.2779L20.6443 17.0262ZM12 22V21.5C6.75329 21.5 2.5 17.2467 2.5 12H2H1.5C1.5 17.799 6.20101 22.5 12 22.5V22ZM2 12L2.5 12C2.50001 7.39013 5.78467 3.54938 10.1416 2.68539L10.0444 2.19494L9.94713 1.70449C5.13157 2.65942 1.50001 6.90313 1.5 12L2 12ZM20.5411 16.8781L20.6183 17.3722C20.3042 17.4212 20.0332 17.0819 20.2123 16.7744L20.6443 17.0262L21.0763 17.2779C21.3402 16.825 20.9443 16.3091 20.4639 16.3841L20.5411 16.8781ZM10.1511 2.34073L10.5933 2.57409C10.8213 2.1421 10.4585 1.60308 9.94713 1.70449L10.0444 2.19494L10.1416 2.68539C9.79534 2.75406 9.55951 2.3905 9.70893 2.10736L10.1511 2.34073Z" fill="black"/>
</svg>
