<svg width="24" height="24" viewBox="0 0 24 24" fill="none" xmlns="http://www.w3.org/2000/svg">
<path d="M12 4C12.3387 4 12.6724 4.02104 13 4.06189V2H11V4.06189C11.3276 4.02104 11.6613 4 12 4Z" fill="black"/>
<path d="M20 12C20 12.3387 19.979 12.6724 19.9381 13H22V11L19.9381 11C19.979 11.3276 20 11.6613 20 12Z" fill="black"/>
<path d="M13 19.9381C12.6724 19.979 12.3387 20 12 20C11.6613 20 11.3276 19.979 11 19.9381L11 22H13V19.9381Z" fill="black"/>
<path d="M4.06189 13C4.02104 12.6724 4 12.3387 4 12C4 11.6613 4.02104 11.3276 4.06189 11L2 11V13H4.06189Z" fill="black"/>
<path d="M4.06189 13C4.08289 13.1683 4.10911 13.3351 4.1404 13.5C4.75034 16.7154 7.28458 19.2497 10.5 19.8596C10.6649 19.8909 10.8317 19.9171 11 19.9381M4.06189 13C4.02104 12.6724 4 12.3387 4 12C4 11.6613 4.02104 11.3276 4.06189 11M4.06189 13H2V11L4.06189 11M4.06189 11C4.08289 10.8317 4.10911 10.6649 4.1404 10.5C4.75034 7.28458 7.28458 4.75034 10.5 4.1404C10.6649 4.10911 10.8317 4.08289 11 4.06189M19.9381 13C19.979 12.6724 20 12.3387 20 12C20 11.6613 19.979 11.3276 19.9381 11M19.9381 13C19.9171 13.1683 19.8909 13.3351 19.8596 13.5C19.2497 16.7154 16.7154 19.2497 13.5 19.8596C13.3351 19.8909 13.1683 19.9171 13 19.9381M19.9381 13H22V11L19.9381 11M19.9381 11C19.9171 10.8317 19.8909 10.6649 19.8596 10.5C19.2497 7.28458 16.7154 4.75034 13.5 4.1404C13.3351 4.10911 13.1683 4.08289 13 4.06189M13 19.9381C12.6724 19.979 12.3387 20 12 20C11.6613 20 11.3276 19.979 11 19.9381M13 19.9381V22H11L11 19.9381M13 4.06189C12.6724 4.02104 12.3387 4 12 4C11.6613 4 11.3276 4.02104 11 4.06189M13 4.06189V2H11V4.06189" stroke="black"/>
<circle cx="12" cy="12" r="5" stroke="black"/>
</svg>
