<svg width="24" height="24" viewBox="0 0 24 24" fill="none" xmlns="http://www.w3.org/2000/svg">
<path d="M3 11H9C9.55228 11 10 11.4477 10 12V17C10 17.5523 9.55228 18 9 18H4C3.44772 18 3 17.5523 3 17V11Z" fill="black"/>
<path d="M3 11H9C9.55228 11 10 11.4477 10 12V17C10 17.5523 9.55228 18 9 18H4C3.44772 18 3 17.5523 3 17V11ZM3 11C3 8 5 6.5 8 5" stroke="black"/>
<path d="M14 11H20C20.5523 11 21 11.4477 21 12V17C21 17.5523 20.5523 18 20 18H15C14.4477 18 14 17.5523 14 17V11Z" fill="black"/>
<path d="M14 11H20C20.5523 11 21 11.4477 21 12V17C21 17.5523 20.5523 18 20 18H15C14.4477 18 14 17.5523 14 17V11ZM14 11C14 8 16 6.5 19 5" stroke="black"/>
</svg>
