<svg width="24" height="24" viewBox="0 0 24 24" fill="none" xmlns="http://www.w3.org/2000/svg">
<path d="M17 7V6C17 5.44772 16.5523 5 16 5H3C2.44772 5 2 5.44772 2 6V16C2 16.5523 2.44772 17 3 17H5M17 7H19.323C19.7319 7 20.0996 7.24895 20.2514 7.62861L22 12M17 7V12M22 12V16C22 16.5523 21.5523 17 21 17H19M22 12H17M17 12V15M9 17C9 18.1046 8.10457 19 7 19C5.89543 19 5 18.1046 5 17M9 17C9 15.8954 8.10457 15 7 15C5.89543 15 5 15.8954 5 17M9 17H15M19 17C19 18.1046 18.1046 19 17 19C15.8954 19 15 18.1046 15 17M19 17C19 15.8954 18.1046 15 17 15M15 17C15 15.8954 15.8954 15 17 15" stroke="black"/>
</svg>
