<svg width="24" height="24" viewBox="0 0 24 24" fill="none" xmlns="http://www.w3.org/2000/svg"><path d="M19 12H22M19 12C19 10.067 18.2165 8.31699 16.9497 7.05024M19 12C19 13.9275 18.2209 15.6731 16.9605 16.939M12 19V22M12 19C10.067 19 8.31699 18.2165 7.05024 16.9497M12 19C13.9385 19 15.6929 18.2121 16.9605 16.939M5 12H2M5 12C5 13.933 5.7835 15.683 7.05024 16.9497M5 12C5 10.067 5.7835 8.317 7.05025 7.05025M12 5V2M12 5C13.933 5 15.683 5.7835 16.9497 7.05024M12 5C10.067 5 8.317 5.7835 7.05025 7.05025M12 2H10M12 2L14 2M12 22H10M12 22H14M22 12V10M22 12V14M2 12V10M2 12L2 14M16.9497 7.05024L19.0711 4.92892M19.0711 4.92892L17.6568 3.51471M19.0711 4.92892L20.4853 6.34313M7.05024 16.9497L4.92892 19.0711M4.92892 19.0711L3.51471 17.6568M4.92892 19.0711L6.34313 20.4853M7.05025 7.05025L4.92892 4.92892M4.92892 4.92892L6.34313 3.51471M4.92892 4.92892L3.51471 6.34313M16.9605 16.939L19.0818 19.0603M19.0818 19.0603L20.4853 17.6568M19.0818 19.0603L17.6568 20.4853"/><circle cx="13" cy="8" r="1" fill="#000"/><circle cx="10.5" cy="11.5" r="1.5" fill="#000"/><circle cx="12" cy="16" r="1" fill="#000"/><circle cx="7.5" cy="13.5" r="0.5" fill="#000"/><circle cx="16" cy="12" r="1" fill="#000"/></svg>