<svg width="24" height="24" viewBox="0 0 24 24" fill="none" xmlns="http://www.w3.org/2000/svg"><path d="M6.6 19.2C6.6 20.1941 5.79411 21 4.8 21C3.80589 21 3 20.1941 3 19.2C3 18.2059 3.80589 17.4 4.8 17.4M6.6 19.2C6.6 18.2059 5.79411 17.4 4.8 17.4M6.6 19.2H17.4M4.8 17.4V6.6M17.4 19.2C17.4 20.1941 18.2059 21 19.2 21C20.1941 21 21 20.1941 21 19.2C21 18.2059 20.1941 17.4 19.2 17.4M17.4 19.2C17.4 18.2059 18.2059 17.4 19.2 17.4M19.2 17.4V6.6M19.2 6.6C20.1941 6.6 21 5.79411 21 4.8C21 3.80589 20.1941 3 19.2 3C18.2059 3 17.4 3.80589 17.4 4.8M19.2 6.6C18.2059 6.6 17.4 5.79411 17.4 4.8M17.4 4.8H6.6M6.6 4.8C6.6 5.79411 5.79411 6.6 4.8 6.6M6.6 4.8C6.6 3.80589 5.79411 3 4.8 3C3.80589 3 3 3.80589 3 4.8C3 5.79411 3.80589 6.6 4.8 6.6"/></svg>