<svg width="24" height="24" viewBox="0 0 24 24" fill="none" xmlns="http://www.w3.org/2000/svg"><path d="M6.6 19.2C6.6 20.1941 5.79411 21 4.8 21C3.80589 21 3 20.1941 3 19.2C3 18.2059 3.80589 17.4 4.8 17.4M6.6 19.2C6.6 18.2059 5.79411 17.4 4.8 17.4M6.6 19.2H14.7M4.8 17.4V9.3M14.7 19.2C14.7 20.1941 15.5059 21 16.5 21C17.4941 21 18.3 20.1941 18.3 19.2C18.3 18.2059 17.4941 17.4 16.5 17.4M14.7 19.2C14.7 18.2059 15.5059 17.4 16.5 17.4M16.5 17.4L19.2 6.6M19.2 6.6C20.1941 6.6 21 5.79411 21 4.8C21 3.80589 20.1941 3 19.2 3C18.2059 3 17.4 3.80589 17.4 4.8M19.2 6.6C18.2059 6.6 17.4 5.79411 17.4 4.8M17.4 4.8L6.6 7.5M6.6 7.5C6.6 8.49411 5.79411 9.3 4.8 9.3M6.6 7.5C6.6 6.50589 5.79411 5.7 4.8 5.7C3.80589 5.7 3 6.50589 3 7.5C3 8.49411 3.80589 9.3 4.8 9.3"/></svg>