<svg width="24" height="24" viewBox="0 0 24 24" fill="none" xmlns="http://www.w3.org/2000/svg"><path d="M22 19V8C22 7.44772 21.5523 7 21 7H17.7208C17.2903 7 16.9082 6.72457 16.7721 6.31623L16.2279 4.68377C16.0918 4.27543 15.7097 4 15.2792 4H8.72076C8.29033 4 7.90819 4.27543 7.77208 4.68377L7.22792 6.31623C7.09181 6.72457 6.70967 7 6.27924 7H3C2.44772 7 2 7.44772 2 8V19C2 19.5523 2.44772 20 3 20H21C21.5523 20 22 19.5523 22 19Z"/><path d="M16 13C16 15.2091 14.2091 17 12 17C9.79086 17 8 15.2091 8 13C8 10.7909 9.79086 9 12 9C14.2091 9 16 10.7909 16 13Z"/></svg>