<svg width="24" height="24" viewBox="0 0 24 24" fill="none" xmlns="http://www.w3.org/2000/svg"><path d="M2 4H4L4.46154 6L6.07692 13M18.5 17H7L6.07692 13M21 6L20.1227 12.1414C20.0523 12.6341 19.6304 13 19.1327 13H6.07692"/><circle cx="8.25" cy="20.25" r="1.25" fill="#000"/><circle cx="17.25" cy="20.25" r="1.25" fill="#000"/><path d="M10.0505 9C10.6818 9.61859 11.5463 10 12.5 10C14.433 10 16 8.433 16 6.5C16 5.54635 15.6186 4.68178 15 4.05051M10.0505 9C9.40223 8.36474 9 7.47934 9 6.5C9 4.567 10.567 3 12.5 3C13.4793 3 14.3647 3.40223 15 4.05051M10.0505 9L15 4.05051"/></svg>