<svg width="24" height="24" viewBox="0 0 24 24" fill="none" xmlns="http://www.w3.org/2000/svg"><circle cx="8.5" cy="10.5" r="1.5" fill="#000"/><circle cx="3.5" cy="11.5" r="1.5" fill="#000"/><circle cx="3.5" cy="17.5" r="1.5" fill="#000"/><circle cx="8.5" cy="15.5" r="1.5" fill="#000"/><circle cx="8.5" cy="20.5" r="1.5" fill="#000"/><circle cx="14.5" cy="18.5" r="1.5" fill="#000"/><circle cx="15.5" cy="14.5" r="1.5" fill="#000"/><circle cx="20.5" cy="15.5" r="1.5" fill="#000"/><circle cx="18.5" cy="20.5" r="1.5" fill="#000"/><circle cx="19.5" cy="8.5" r="1.5" fill="#000"/><circle cx="14.5" cy="9.5" r="1.5" fill="#000"/><circle cx="15.5" cy="5.5" r="1.5" fill="#000"/><circle cx="11.5" cy="3.5" r="1.5" fill="#000"/><path d="M21.5 4C21.5 4.82843 20.8284 5.5 20 5.5C19.1716 5.5 18.5 4.82843 18.5 4C18.5 3.17157 19.1716 2.5 20 2.5C20.8284 2.5 21.5 3.17157 21.5 4Z" fill="#000"/></svg>