<svg width="24" height="24" viewBox="0 0 24 24" fill="none" xmlns="http://www.w3.org/2000/svg"><circle cx="12" cy="6" r="1" fill="#000"/><path d="M7 17L10.5858 13.4142M17 7L13.4142 10.5858M10.5858 13.4142C10.9477 13.7761 11.4477 14 12 14C13.1046 14 14 13.1046 14 12C14 11.4477 13.7761 10.9477 13.4142 10.5858M10.5858 13.4142C10.2239 13.0523 10 12.5523 10 12C10 10.8954 10.8954 10 12 10C12.5523 10 13.0523 10.2239 13.4142 10.5858M22 12C22 17.5228 17.5228 22 12 22C6.47715 22 2 17.5228 2 12C2 6.47715 6.47715 2 12 2C17.5228 2 22 6.47715 22 12Z"/></svg>