<svg width="24" height="24" viewBox="0 0 24 24" fill="none" xmlns="http://www.w3.org/2000/svg"><circle cx="8.5" cy="7.5" r="1.5" fill="#000"/><circle cx="17.5" cy="3.5" r="1.5" fill="#000"/><circle cx="8.5" cy="16.5" r="1.5" fill="#000"/><circle cx="16.5" cy="14.5" r="1.5" fill="#000"/><circle cx="7" cy="11" r="1" fill="#000"/><circle cx="12" cy="13" r="1" fill="#000"/><circle cx="21" cy="6" r="1" fill="#000"/><path d="M12.0234 1.99999L12.5214 2.04488L12.5704 1.50125L12.0246 1.49999L12.0234 1.99999ZM12 2.49999L11.5 2.49999V2.49999H12ZM18.0566 7.97167L18.5455 8.07687L18.6899 7.4055L18.0066 7.47418L18.0566 7.97167ZM18 8.49999L17.5 8.49999V8.49999H18ZM21.8965 10.5732L22.3915 10.5025L22.2785 9.71217L21.6168 10.1588L21.8965 10.5732ZM22 12H22.5H22ZM2 12H1.5H2ZM12.0234 1.99999L11.5255 1.95511C11.5095 2.13264 11.5 2.31446 11.5 2.49999L12 2.49999L12.5 2.49999C12.5 2.34837 12.5077 2.19677 12.5214 2.04488L12.0234 1.99999ZM12 2.49999H11.5C11.5 5.8137 14.1863 8.49999 17.5 8.49999V7.99999V7.49999C14.7386 7.49999 12.5 5.26142 12.5 2.49999H12ZM17.5 7.99999V8.49999C17.7055 8.49999 17.9079 8.48914 18.1066 8.46917L18.0566 7.97167L18.0066 7.47418C17.8393 7.491 17.6703 7.49999 17.5 7.49999V7.99999ZM18.0566 7.97167L17.5678 7.86648C17.5241 8.06989 17.5 8.28181 17.5 8.49999L18 8.49999L18.5 8.49999C18.5 8.35555 18.5159 8.21415 18.5455 8.07687L18.0566 7.97167ZM18 8.49999H17.5C17.5 10.1568 18.8431 11.5 20.5 11.5V11V10.5C19.3954 10.5 18.5 9.60456 18.5 8.49999H18ZM20.5 11V11.5C21.1205 11.5 21.6977 11.3106 22.1762 10.9877L21.8965 10.5732L21.6168 10.1588C21.2977 10.3742 20.9142 10.5 20.5 10.5V11ZM21.8965 10.5732L21.4015 10.644C21.465 11.0885 21.5 11.5409 21.5 12H22H22.5C22.5 11.49 22.4611 10.9902 22.3915 10.5025L21.8965 10.5732ZM22 12H21.5C21.5 17.2467 17.2467 21.5 12 21.5V22V22.5C17.799 22.5 22.5 17.799 22.5 12H22ZM12 22V21.5C6.75329 21.5 2.5 17.2467 2.5 12H2H1.5C1.5 17.799 6.20101 22.5 12 22.5V22ZM2 12H2.5C2.5 6.75329 6.7533 2.49999 12 2.49999V1.99999V1.49999C6.20101 1.49999 1.5 6.20101 1.5 12H2ZM12 1.99999V2.49999C12.0094 2.49999 12.0151 2.49997 12.0223 2.49999L12.0234 1.99999L12.0246 1.49999C12.0161 1.49997 12.0062 1.49999 12 1.49999V1.99999Z" fill="#000"/></svg>