<svg width="24" height="24" viewBox="0 0 24 24" fill="none" xmlns="http://www.w3.org/2000/svg"><path d="M12 5H21C21.5523 5 22 5.44772 22 6V18C22 18.5523 21.5523 19 21 19H12V5Z" fill="#000"/><path d="M3 5V5.5H21V5V4.5H3V5ZM22 6H21.5V18H22H22.5V6H22ZM21 19V18.5H3V19V19.5H21V19ZM2 18H2.5V6H2H1.5V18H2ZM3 19V18.5C2.72386 18.5 2.5 18.2761 2.5 18H2H1.5C1.5 18.8284 2.17157 19.5 3 19.5V19ZM22 18H21.5C21.5 18.2761 21.2761 18.5 21 18.5V19V19.5C21.8284 19.5 22.5 18.8284 22.5 18H22ZM21 5V5.5C21.2761 5.5 21.5 5.72386 21.5 6H22H22.5C22.5 5.17157 21.8284 4.5 21 4.5V5ZM3 5V4.5C2.17157 4.5 1.5 5.17157 1.5 6H2H2.5C2.5 5.72386 2.72386 5.5 3 5.5V5Z" fill="#000"/></svg>