<svg width="24" height="24" viewBox="0 0 24 24" fill="none" xmlns="http://www.w3.org/2000/svg"><path d="M6 3.99927L7 6H10M10 6L9 11M10 6L11 4.5M9 11H5L4.5 13L6 16H10L12 18L10 21.8M9 11V13M14.5 2.31504C13.701 2.10938 12.8632 2 12 2C6.47715 2 2 6.47715 2 12C2 17.5228 6.47715 22 12 22C14.7974 22 17.3265 20.8514 19.1414 19M14.5 2.31504V7H18L19.1414 5M14.5 2.31504C16.2903 2.77584 17.8866 3.71995 19.1414 5M19.1414 5C20.4653 6.35045 21.4092 8.07481 21.8 10M21.8 10C21.9311 10.6462 22 11.3151 22 12C22 14.7255 20.9097 17.1962 19.1414 19M21.8 10H16L15 14L18 16L19.1414 19"/></svg>