<svg width="24" height="24" viewBox="0 0 24 24" fill="none" xmlns="http://www.w3.org/2000/svg"><path d="M12 1.5C17.799 1.5 22.5 6.20101 22.5 12C22.5 17.799 17.799 22.5 12 22.5C6.20101 22.5 1.5 17.799 1.5 12C1.5 6.20101 6.20101 1.5 12 1.5ZM16.3311 14.5C15.8923 15.26 15.2599 15.8912 14.5 16.3301C13.7401 16.7687 12.8774 16.9999 12 17C11.1226 16.9999 10.2599 16.7687 9.5 16.3301C8.74013 15.8913 8.10869 15.2599 7.66992 14.5L6.80469 15C7.33124 15.9119 8.08813 16.6698 9 17.1963C9.9119 17.7227 10.9471 17.9999 12 18C13.0529 17.9999 14.0881 17.7227 15 17.1963C15.9119 16.6697 16.6697 15.9119 17.1963 15L16.3311 14.5ZM8 8C6.89543 8 6 8.89543 6 10C6 11.1046 6.89543 12 8 12C9.10457 12 10 11.1046 10 10C10 8.89543 9.10457 8 8 8ZM16 8C14.8954 8 14 8.89543 14 10C14 11.1046 14.8954 12 16 12C17.1046 12 18 11.1046 18 10C18 8.89543 17.1046 8 16 8Z" fill="#000"/></svg>