<svg width="24" height="24" viewBox="0 0 24 24" fill="none" xmlns="http://www.w3.org/2000/svg"><path d="M4 3V3.5H20V3V2.5H4V3ZM21 4H20.5V20H21H21.5V4H21ZM20 21V20.5H4V21V21.5H20V21ZM3 20H3.5V4H3H2.5V20H3ZM4 21V20.5C3.72386 20.5 3.5 20.2761 3.5 20H3H2.5C2.5 20.8284 3.17157 21.5 4 21.5V21ZM21 20H20.5C20.5 20.2761 20.2761 20.5 20 20.5V21V21.5C20.8284 21.5 21.5 20.8284 21.5 20H21ZM20 3V3.5C20.2761 3.5 20.5 3.72386 20.5 4H21H21.5C21.5 3.17157 20.8284 2.5 20 2.5V3ZM4 3V2.5C3.17157 2.5 2.5 3.17157 2.5 4H3H3.5C3.5 3.72386 3.72386 3.5 4 3.5V3Z" fill="#000"/><path d="M13.7998 21H17.4004V17.4004H13.7998V21ZM4 3C3.44772 3 3 3.44772 3 4V20C3 20.5523 3.44772 21 4 21H10.2002V17.4004H6.59961V13.7998H10.2002V10.2002H6.59961V6.59961H10.2002V3H4ZM10.2002 17.4004H13.7998V13.7998H10.2002V17.4004ZM13.7998 13.7998H17.4004V10.2002H13.7998V13.7998ZM10.2002 10.2002H13.7998V6.59961H10.2002V10.2002ZM13.7998 6.59961H17.4004V3H13.7998V6.59961Z" fill="#000"/></svg>