<svg width="24" height="24" viewBox="0 0 24 24" fill="none" xmlns="http://www.w3.org/2000/svg"><path d="M10.0444 2.19455C10.1269 2.17818 10.1904 2.26591 10.1511 2.34034C9.41678 3.73178 9.00007 5.31686 9 6.99959C9 12.5224 13.4772 16.9996 19 16.9996C19.5244 16.9996 20.0387 16.9563 20.5411 16.8778C20.6243 16.8648 20.6867 16.953 20.6443 17.0258C18.9115 19.9999 15.6903 21.9996 12 21.9996C6.47715 21.9996 2 17.5224 2 11.9996C2.0002 7.14639 5.45821 3.10397 10.0444 2.19455Z" fill="#080808"/><path d="M9 6.99959L8.5 6.99957V6.99959H9ZM2 11.9996L1.5 11.9996V11.9996H2ZM20.5411 16.8778L20.4639 16.3837L20.5411 16.8778ZM20.6443 17.0258L20.2123 16.7741L20.6443 17.0258ZM10.1511 2.34034L9.70892 2.10696L10.1511 2.34034ZM10.0444 2.19455L10.1416 2.685L10.0444 2.19455ZM10.1511 2.34034L9.70892 2.10696C8.93764 3.5684 8.50007 5.23335 8.5 6.99957L9 6.99959L9.5 6.99961C9.50006 5.40038 9.89591 3.89517 10.5933 2.57371L10.1511 2.34034ZM9 6.99959H8.5C8.5 12.7986 13.201 17.4996 19 17.4996V16.9996V16.4996C13.7533 16.4996 9.5 12.2463 9.5 6.99959H9ZM19 16.9996V17.4996C19.552 17.4996 20.0922 17.454 20.6183 17.3718L20.5411 16.8778L20.4639 16.3837C19.9852 16.4585 19.4967 16.4996 19 16.4996V16.9996ZM20.6443 17.0258L20.2123 16.7741C18.5653 19.601 15.5049 21.4996 12 21.4996V21.9996V22.4996C15.8756 22.4996 19.2578 20.3989 21.0763 17.2775L20.6443 17.0258ZM12 21.9996V21.4996C6.75329 21.4996 2.5 17.2463 2.5 11.9996H2H1.5C1.5 17.7986 6.20101 22.4996 12 22.4996V21.9996ZM2 11.9996L2.5 11.9996C2.50019 7.38988 5.78478 3.54895 10.1416 2.685L10.0444 2.19455L9.94712 1.7041C5.13164 2.65899 1.50021 6.90291 1.5 11.9996L2 11.9996ZM20.5411 16.8778L20.6183 17.3718C20.3042 17.4208 20.0332 17.0815 20.2123 16.7741L20.6443 17.0258L21.0763 17.2775C21.3402 16.8246 20.9443 16.3087 20.4639 16.3837L20.5411 16.8778ZM10.1511 2.34034L10.5933 2.57371C10.8213 2.14172 10.4585 1.60269 9.94712 1.7041L10.0444 2.19455L10.1416 2.685C9.79533 2.75367 9.5595 2.3901 9.70892 2.10696L10.1511 2.34034Z" fill="#000"/></svg>