<svg width="24" height="24" viewBox="0 0 24 24" fill="none" xmlns="http://www.w3.org/2000/svg"><path d="M3.5 12V16.5C3.5 18.9853 5.51472 21 8 21C9.56452 21 10.9426 20.2016 11.7489 18.99M3.5 12V7.5C3.5 5.01472 5.51472 3 8 3C10.4853 3 12.5 5.01472 12.5 7.5V11.2572M3.5 12H11.7572M21.5 15.5C21.5 18.5376 19.0376 21 16 21C14.2874 21 12.7576 20.2172 11.7489 18.99M21.5 15.5C21.5 12.4624 19.0376 10 16 10C14.6704 10 13.4509 10.4718 12.5 11.2572M21.5 15.5H10.5M10.5 15.5C10.5 16.825 10.9685 18.0405 11.7489 18.99M10.5 15.5C10.5 14.1704 10.9718 12.9509 11.7572 12M12.5 11.2572C12.2294 11.4806 11.9806 11.7294 11.7572 12"/></svg>