<svg width="24" height="24" viewBox="0 0 24 24" fill="none" xmlns="http://www.w3.org/2000/svg"><mask id="path-1-inside-1_415_280" fill="#fff"><path d="M2 2H11V11H2V2Z"/></mask><path d="M2 2V1H1V2H2ZM11 2H12V1H11V2ZM11 11V12H12V11H11ZM2 11H1V12H2V11ZM2 2V3H11V2V1H2V2ZM11 2H10V11H11H12V2H11ZM11 11V10H2V11V12H11V11ZM2 11H3V2H2H1V11H2Z" fill="#000" mask="url(#path-1-inside-1_415_280)"/><mask id="path-3-inside-2_415_280" fill="#fff"><path d="M13 2H22V11H13V2Z"/></mask><path d="M13 2V1H12V2H13ZM22 2H23V1H22V2ZM22 11V12H23V11H22ZM13 11H12V12H13V11ZM13 2V3H22V2V1H13V2ZM22 2H21V11H22H23V2H22ZM22 11V10H13V11V12H22V11ZM13 11H14V2H13H12V11H13Z" fill="#000" mask="url(#path-3-inside-2_415_280)"/><mask id="path-5-inside-3_415_280" fill="#fff"><path d="M2 13H11V22H2V13Z"/></mask><path d="M2 13V12H1V13H2ZM11 13H12V12H11V13ZM11 22V23H12V22H11ZM2 22H1V23H2V22ZM2 13V14H11V13V12H2V13ZM11 13H10V22H11H12V13H11ZM11 22V21H2V22V23H11V22ZM2 22H3V13H2H1V22H2Z" fill="#000" mask="url(#path-5-inside-3_415_280)"/><path d="M5 5H8V8H5V5Z" fill="#000"/><path d="M16 5H19V8H16V5Z" fill="#000"/><path d="M5 16H8V19H5V16Z" fill="#000"/><path d="M15 13H17V15H15V13Z" fill="#000"/><path d="M17 16H19V18H17V16Z" fill="#000"/><path d="M19 21H20V22H19V21Z" fill="#000"/><path d="M18 20H19V21H18V20Z" fill="#000"/><path d="M18 19H19V20H18V19Z" fill="#000"/><path d="M19 18H20V19H19V18Z" fill="#000"/><path d="M16 17H17V18H16V17Z" fill="#000"/><path d="M15 16H16V17H15V16Z" fill="#000"/><path d="M14 17H15V18H14V17Z" fill="#000"/><path d="M14 15H15V16H14V15Z" fill="#000"/><path d="M13 13H14V14H13V13Z" fill="#000"/><path d="M14 14H15V15H14V14Z" fill="#000"/><path d="M15 15H16V16H15V15Z" fill="#000"/><path d="M18 14H19V15H18V14Z" fill="#000"/><path d="M13 21H14V22H13V21Z" fill="#000"/><path d="M14 21H15V22H14V21Z" fill="#000"/><path d="M15 20H16V21H15V20Z" fill="#000"/><path d="M17 19H18V20H17V19Z" fill="#000"/><path d="M19 13H20V14H19V13Z" fill="#000"/><path d="M21 15H22V16H21V15Z" fill="#000"/><path d="M20 16H21V17H20V16Z" fill="#000"/><path d="M21 17H22V18H21V17Z" fill="#000"/><path d="M20 18H22V20H20V18Z" fill="#000"/><path d="M20 20H22V22H20V20Z" fill="#000"/><path d="M13 18H15V20H13V18Z" fill="#000"/><path d="M20 13H22V15H20V13Z" fill="#000"/></svg>