<svg width="24" height="24" viewBox="0 0 24 24" fill="none" xmlns="http://www.w3.org/2000/svg"><path d="M20.5 15.4024C21.9349 16.2308 22.4265 18.0656 21.5981 19.5005C20.7696 20.9354 18.9349 21.427 17.5 20.5986C16.0651 19.7701 15.5735 17.9354 16.4019 16.5005C17.2303 15.0656 19.0651 14.574 20.5 15.4024ZM20.5 15.4024L3 5M20.5 9.59858C19.0651 10.427 17.2303 9.93538 16.4019 8.5005C15.5735 7.06562 16.0651 5.23085 17.5 4.40242C18.9349 3.574 20.7696 4.06562 21.5981 5.5005C22.4265 6.93538 21.9349 8.77015 20.5 9.59858ZM20.5 9.59858L3 20"/></svg>