<svg width="24" height="24" viewBox="0 0 24 24" fill="none" xmlns="http://www.w3.org/2000/svg"><rect x="3" y="19" width="18" height="2" fill="#000"/><path d="M12 3L12.4596 2.80304H11.5404L12 3ZM6 17L6.45957 17.197L8.33457 12.822L7.875 12.625L7.41543 12.428L5.54043 16.803L6 17ZM7.875 12.625L8.33457 12.822L12.4596 3.19696L12 3L11.5404 2.80304L7.41543 12.428L7.875 12.625ZM12 3L11.5404 3.19696L15.6654 12.822L16.125 12.625L16.5846 12.428L12.4596 2.80304L12 3ZM16.125 12.625L15.6654 12.822L17.5404 17.197L18 17L18.4596 16.803L16.5846 12.428L16.125 12.625ZM7.875 12.625V13.125H16.125V12.625V12.125H7.875V12.625Z" fill="#000"/></svg>