<svg width="24" height="24" viewBox="0 0 24 24" fill="none" xmlns="http://www.w3.org/2000/svg"><path d="M16.4 16C18.3882 16 20 14.3882 20 12.4C20 10.547 18.6 9.02095 16.8 8.82197C16.8 6.171 14.651 4 12 4C9.34903 4 7.2 6.171 7.2 8.82197C5.40002 9.02095 4 10.547 4 12.4C4 14.3264 5.51316 15.8995 7.41578 15.9954C7.49503 15.9994 7.54282 16.088 7.49958 16.1545L5 20M13 11L10 16H14L11 21M9.5 18L7.2 21.5"/><circle cx="15.75" cy="18.75" r="0.75" fill="#000"/><circle cx="14.25" cy="21.25" r="0.75" fill="#000"/></svg>