<svg width="24" height="24" viewBox="0 0 24 24" fill="none" xmlns="http://www.w3.org/2000/svg"><path d="M16.4 16C18.3882 16 20 14.3882 20 12.4C20 11.7313 19.8177 11.1051 19.5 10.5686M13 11L10 16H14L11 21M5 20L7.49958 16.1545C7.54282 16.088 7.49503 15.9994 7.41578 15.9954C5.51316 15.8995 4 14.3264 4 12.4C4 10.547 5.40002 9.02095 7.2 8.82197C7.2 6.171 9.34903 4 12 4C13.0492 4 14.0197 4.34004 14.8095 4.9153M9.5 18L7.2 21.5"/><path d="M16 18L14 21.5"/><path d="M17.9256 3.69223C17.7304 3.37496 17.2693 3.37496 17.074 3.69223L13.9686 8.73813C13.764 9.07109 14.0036 9.49952 14.3943 9.49985H20.6053C20.9964 9.49981 21.2359 9.07123 21.0311 8.73813L17.9256 3.69223ZM17.4998 7.74985C17.7759 7.74985 17.9997 7.97377 17.9998 8.24985C17.9998 8.52599 17.776 8.74985 17.4998 8.74985C17.2237 8.74976 16.9998 8.52594 16.9998 8.24985C16.9999 7.97383 17.2238 7.74993 17.4998 7.74985ZM17.9002 5.24985V7.24985H17.0994V5.24985H17.9002Z" fill="#000"/></svg>