<svg width="24" height="24" viewBox="0 0 24 24" fill="none" xmlns="http://www.w3.org/2000/svg"><path d="M2.10048 11.2929L2.45403 11.6464L11.6464 2.45406L11.2929 2.10051L10.9393 1.74695L1.74692 10.9393L2.10048 11.2929ZM12.7071 2.10051L12.3535 2.45406L21.5459 11.6464L21.8995 11.2929L22.253 10.9393L13.0606 1.74695L12.7071 2.10051ZM21.8995 12.7071L21.5459 12.3536L12.3535 21.5459L12.7071 21.8995L13.0606 22.253L22.253 13.0607L21.8995 12.7071ZM11.2929 21.8995L11.6464 21.5459L2.45403 12.3536L2.10048 12.7071L1.74692 13.0607L10.9393 22.253L11.2929 21.8995ZM12.7071 21.8995L12.3535 21.5459C12.1583 21.7412 11.8417 21.7412 11.6464 21.5459L11.2929 21.8995L10.9393 22.253C11.5251 22.8388 12.4748 22.8388 13.0606 22.253L12.7071 21.8995ZM21.8995 11.2929L21.5459 11.6464C21.7412 11.8417 21.7412 12.1583 21.5459 12.3536L21.8995 12.7071L22.253 13.0607C22.8388 12.4749 22.8388 11.5251 22.253 10.9393L21.8995 11.2929ZM11.2929 2.10051L11.6464 2.45406C11.8417 2.2588 12.1583 2.2588 12.3535 2.45406L12.7071 2.10051L13.0606 1.74695C12.4748 1.16117 11.5251 1.16117 10.9393 1.74695L11.2929 2.10051ZM2.10048 11.2929L1.74692 10.9393C1.16114 11.5251 1.16114 12.4749 1.74692 13.0607L2.10048 12.7071L2.45403 12.3536C2.25877 12.1583 2.25877 11.8417 2.45403 11.6464L2.10048 11.2929Z" fill="#000"/><rect x="8" y="11" width="8" height="2" fill="#000"/></svg>