<svg width="24" height="24" viewBox="0 0 24 24" fill="none" xmlns="http://www.w3.org/2000/svg"><path d="M2 21H12M12 21H22M12 21V12M12 12C12.6626 12 13.2249 11.5704 13.4234 10.9745M12 12C11.6092 12 11.2534 11.8506 10.9864 11.6057M20.5 13L13.4234 10.9745M9.5 1.5L11.6134 9.05029M5.5 17L10.9864 11.6057M11.6134 9.05029C10.9723 9.2208 10.5 9.80524 10.5 10.5C10.5 10.9377 10.6874 11.3315 10.9864 11.6057M11.6134 9.05029C11.7367 9.01748 11.8663 9 12 9C12.8284 9 13.5 9.67157 13.5 10.5C13.5 10.6658 13.4731 10.8253 13.4234 10.9745"/></svg>